<?xml version="1.0" encoding="utf-8"?>
<!-- Generator: Adobe Illustrator 24.3.0, SVG Export Plug-In . SVG Version: 6.00 Build 0)  -->
<svg version="1.1" id="Calque_1" xmlns="http://www.w3.org/2000/svg" xmlns:xlink="http://www.w3.org/1999/xlink" x="0px" y="0px"
	 viewBox="0 0 273 63" style="enable-background:new 0 0 273 63;" xml:space="preserve">
<style type="text/css">
	.st0{fill:url(#SVGID_1_);}
	.st1{opacity:0.3;fill:url(#SVGID_2_);}
	.st2{opacity:0.5;fill:url(#SVGID_3_);}
	.st3{opacity:0.5;fill:url(#SVGID_4_);}
	.st4{opacity:0.5;fill:url(#SVGID_5_);}
	.st5{opacity:0.5;fill:url(#SVGID_6_);}
	.st6{opacity:0.5;fill:url(#SVGID_7_);}
	.st7{fill:#282828;}
</style>
<g>
	<g>
		<linearGradient id="SVGID_1_" gradientUnits="userSpaceOnUse" x1="116.1534" y1="54.7127" x2="67.8074" y2="6.3667">
			<stop  offset="0" style="stop-color:#F61518"/>
			<stop  offset="0" style="stop-color:#7827B8"/>
			<stop  offset="1" style="stop-color:#8F2ECF"/>
		</linearGradient>
		<path class="st0" d="M60.92,50.08H48.95L63.18,11h11.97L60.92,50.08z M95.1,11H83.13L68.9,50.08h11.97L95.1,11z M115.06,11h-11.97
			L88.86,50.08h11.97L115.06,11z M135.01,11h-11.97l-14.23,39.09h11.97L135.01,11z"/>
		<linearGradient id="SVGID_2_" gradientUnits="userSpaceOnUse" x1="69.1635" y1="30.5397" x2="142.9908" y2="30.5397">
			<stop  offset="0" style="stop-color:#F61518"/>
			<stop  offset="0" style="stop-color:#7827B8"/>
			<stop  offset="1" style="stop-color:#8F2ECF"/>
		</linearGradient>
		<path class="st1" d="M79.14,21.96l-5.99,16.45l-3.99-10.96L75.15,11L79.14,21.96z M95.09,11L89.1,27.44l3.99,10.96l5.99-16.45
			L95.09,11z M115.06,11l-5.99,16.45l3.99,10.96l5.99-16.45L115.06,11z M142.99,11h-7.98L139,21.96L142.99,11z M124.77,39.12
			l-3.99,10.96h7.98l3.99-10.96H124.77z"/>
		<linearGradient id="SVGID_3_" gradientUnits="userSpaceOnUse" x1="77.6757" y1="25.9845" x2="70.628" y2="23.4193">
			<stop  offset="0.3" style="stop-color:#FFFFFF;stop-opacity:0"/>
			<stop  offset="0.5" style="stop-color:#FFFFFF;stop-opacity:0"/>
			<stop  offset="1" style="stop-color:#000000"/>
		</linearGradient>
		<polygon class="st2" points="75.15,11 69.16,27.44 73.15,38.41 79.14,21.96 		"/>
		<linearGradient id="SVGID_4_" gradientUnits="userSpaceOnUse" x1="97.6137" y1="25.9845" x2="90.566" y2="23.4193">
			<stop  offset="0.3" style="stop-color:#FFFFFF;stop-opacity:0"/>
			<stop  offset="0.5" style="stop-color:#FFFFFF;stop-opacity:0"/>
			<stop  offset="1" style="stop-color:#000000"/>
		</linearGradient>
		<polygon class="st3" points="95.09,11 89.1,27.44 93.09,38.41 99.08,21.96 		"/>
		<linearGradient id="SVGID_5_" gradientUnits="userSpaceOnUse" x1="117.5823" y1="25.9845" x2="110.5346" y2="23.4193">
			<stop  offset="0.3" style="stop-color:#FFFFFF;stop-opacity:0"/>
			<stop  offset="0.5" style="stop-color:#FFFFFF;stop-opacity:0"/>
			<stop  offset="1" style="stop-color:#000000"/>
		</linearGradient>
		<polygon class="st4" points="115.06,11 109.07,27.44 113.06,38.41 119.05,21.96 		"/>
		<linearGradient id="SVGID_6_" gradientUnits="userSpaceOnUse" x1="140.9955" y1="16.4787" x2="133.9478" y2="13.9136">
			<stop  offset="0.3" style="stop-color:#FFFFFF;stop-opacity:0"/>
			<stop  offset="0.5" style="stop-color:#FFFFFF;stop-opacity:0"/>
			<stop  offset="1" style="stop-color:#000000"/>
		</linearGradient>
		<polygon class="st5" points="139,21.96 135.01,11 142.99,11 		"/>
		<linearGradient id="SVGID_7_" gradientUnits="userSpaceOnUse" x1="130.2939" y1="45.8843" x2="123.2451" y2="43.3188">
			<stop  offset="0.3" style="stop-color:#FFFFFF;stop-opacity:0"/>
			<stop  offset="0.5" style="stop-color:#FFFFFF;stop-opacity:0"/>
			<stop  offset="1" style="stop-color:#000000"/>
		</linearGradient>
		<polygon class="st6" points="132.76,39.12 128.77,50.08 120.78,50.08 124.77,39.12 		"/>
	</g>
	<g>
		<path class="st7" d="M163.94,11.12l-2.26,11.38h-2.47l1.33-6.76l-4.34,5.56h-1.17l-2.34-5.62l-1.37,6.83h-2.47l2.28-11.38h2.15
			l2.84,7.09l5.56-7.09H163.94z"/>
		<path class="st7" d="M172.75,18.81h-6.7c0.08,1.19,0.81,1.79,2.26,1.79c0.89,0,1.74-0.29,2.34-0.81l1.06,1.67
			c-1.01,0.81-2.32,1.17-3.66,1.17c-2.73,0-4.47-1.54-4.47-3.92c0-2.92,2.11-5.09,5.15-5.09c2.55,0,4.16,1.51,4.16,3.85
			C172.89,17.94,172.83,18.4,172.75,18.81z M166.23,17.33h4.34c0-1.15-0.78-1.8-1.95-1.8C167.4,15.52,166.57,16.24,166.23,17.33z"/>
		<path class="st7" d="M184.09,10.44l-2.41,12.06h-2.41l0.18-0.88c-0.7,0.63-1.59,1.01-2.68,1.01c-2.03,0-3.77-1.43-3.77-3.92
			c0-2.94,2.13-5.09,4.83-5.09c1.27,0,2.26,0.42,2.83,1.28l0.89-4.47H184.09z M180.12,17.65c0-1.19-0.73-1.93-2-1.93
			c-1.5,0-2.57,1.17-2.57,2.88c0,1.19,0.73,1.93,2,1.93C179.05,20.53,180.12,19.36,180.12,17.65z"/>
		<path class="st7" d="M184.97,13.75h2.52l-1.74,8.74h-2.52L184.97,13.75z M185.18,11.22c0-0.85,0.67-1.51,1.67-1.51
			c0.89,0,1.5,0.55,1.5,1.27c0,0.93-0.68,1.56-1.69,1.56C185.76,12.53,185.18,11.95,185.18,11.22z"/>
		<path class="st7" d="M197.9,13.75l-1.74,8.74h-2.41l0.16-0.86c-0.7,0.63-1.61,0.99-2.68,0.99c-2.03,0-3.77-1.43-3.77-3.92
			c0-2.94,2.13-5.09,4.83-5.09c1.27,0,2.28,0.41,2.84,1.32l0.23-1.19H197.9z M194.59,17.65c0-1.19-0.73-1.93-2-1.93
			c-1.5,0-2.57,1.17-2.57,2.88c0,1.19,0.73,1.93,2,1.93C193.52,20.53,194.59,19.36,194.59,17.65z"/>
		<path class="st7" d="M158.94,24.87l-2.26,11.38h-2.47l1.33-6.76l-4.34,5.56h-1.17l-2.34-5.62l-1.37,6.83h-2.47l2.28-11.38h2.15
			l2.84,7.09l5.56-7.09H158.94z"/>
		<path class="st7" d="M167.74,32.56h-6.7c0.08,1.19,0.81,1.79,2.26,1.79c0.89,0,1.74-0.29,2.34-0.81l1.06,1.67
			c-1.01,0.81-2.32,1.17-3.66,1.17c-2.73,0-4.47-1.54-4.47-3.92c0-2.93,2.11-5.09,5.15-5.09c2.55,0,4.16,1.51,4.16,3.85
			C167.89,31.69,167.82,32.15,167.74,32.56z M161.23,31.08h4.34c0-1.15-0.78-1.8-1.95-1.8C162.4,29.27,161.57,29.99,161.23,31.08z"
			/>
		<path class="st7" d="M179.09,24.19l-2.41,12.06h-2.41l0.18-0.88c-0.7,0.63-1.59,1.01-2.68,1.01c-2.03,0-3.77-1.43-3.77-3.92
			c0-2.94,2.13-5.09,4.83-5.09c1.27,0,2.26,0.42,2.83,1.28l0.89-4.47H179.09z M175.12,31.4c0-1.19-0.73-1.93-2-1.93
			c-1.5,0-2.57,1.17-2.57,2.88c0,1.19,0.73,1.93,2,1.93C174.05,34.28,175.12,33.11,175.12,31.4z"/>
		<path class="st7" d="M139.08,45.25c0-3.88,2.84-6.83,7.07-6.83c2.02,0,3.66,0.71,4.47,2.01l-1.9,1.56
			c-0.58-0.86-1.5-1.33-2.75-1.33c-2.57,0-4.23,1.97-4.23,4.42c0,1.72,1.14,2.86,3.19,2.86c1.15,0,2.18-0.41,3.02-1.32l1.56,1.59
			c-1.2,1.4-2.86,1.97-4.81,1.97C141.22,50.19,139.08,48.17,139.08,45.25z"/>
		<path class="st7" d="M149.82,46.21c0-2.91,2.21-5.09,5.28-5.09c2.68,0,4.4,1.54,4.4,3.92c0,2.91-2.19,5.09-5.28,5.09
			C151.56,50.12,149.82,48.57,149.82,46.21z M156.94,45.15c0-1.19-0.71-1.93-1.98-1.93c-1.5,0-2.57,1.17-2.57,2.88
			c0,1.19,0.73,1.93,2,1.93C155.87,48.03,156.94,46.86,156.94,45.15z"/>
		<path class="st7" d="M169.48,44.1c0,0.33-0.03,0.68-0.11,1.06L168.39,50h-2.54l0.94-4.68c0.05-0.21,0.07-0.42,0.07-0.6
			c0-0.89-0.49-1.4-1.5-1.4c-1.28,0-2.18,0.71-2.49,2.24L162.01,50h-2.54l1.74-8.74h2.41l-0.2,0.94c0.8-0.73,1.8-1.07,2.88-1.07
			C168.21,41.12,169.48,42.16,169.48,44.1z"/>
		<path class="st7" d="M169.34,49.21l0.97-1.84c0.75,0.5,1.93,0.83,3.04,0.83c1.19,0,1.71-0.33,1.71-0.85
			c0-1.23-4.63-0.21-4.63-3.17c0-1.97,1.84-3.07,4.39-3.07c1.22,0,2.44,0.28,3.23,0.73l-0.91,1.85c-0.81-0.5-1.77-0.67-2.58-0.67
			c-1.17,0-1.69,0.39-1.69,0.86c0,1.28,4.62,0.26,4.62,3.17c0,2-1.89,3.05-4.4,3.05C171.53,50.12,170.07,49.74,169.34,49.21z"/>
		<path class="st7" d="M188.25,41.25L186.51,50h-2.41l0.18-0.94c-0.78,0.73-1.79,1.07-2.84,1.07c-1.87,0-3.14-1.04-3.14-2.97
			c0-0.33,0.03-0.68,0.11-1.06l0.96-4.84h2.54l-0.93,4.68c-0.05,0.23-0.06,0.44-0.06,0.63c0,0.88,0.47,1.37,1.46,1.37
			c1.25,0,2.13-0.72,2.44-2.24l0.89-4.44H188.25z"/>
		<path class="st7" d="M190.46,37.94H193L190.59,50h-2.54L190.46,37.94z"/>
		<path class="st7" d="M195.58,46.91c-0.03,0.13-0.03,0.24-0.03,0.36c0,0.54,0.29,0.85,0.93,0.85c0.34,0,0.7-0.11,1.02-0.31
			l0.37,1.8c-0.63,0.39-1.41,0.52-2.18,0.52c-1.62,0-2.73-0.91-2.73-2.44c0-0.24,0.03-0.5,0.08-0.76l0.7-3.53h-1.35l0.39-1.95h1.35
			l0.42-2.13h2.54l-0.42,2.13h2.18l-0.39,1.95h-2.18L195.58,46.91z"/>
		<path class="st7" d="M200.13,41.25h2.52L200.91,50h-2.52L200.13,41.25z M200.34,38.72c0-0.84,0.67-1.51,1.67-1.51
			c0.89,0,1.5,0.55,1.5,1.27c0,0.93-0.68,1.56-1.69,1.56C200.93,40.03,200.34,39.45,200.34,38.72z"/>
		<path class="st7" d="M212.46,44.1c0,0.33-0.03,0.68-0.11,1.06L211.37,50h-2.54l0.94-4.68c0.05-0.21,0.07-0.42,0.07-0.6
			c0-0.89-0.49-1.4-1.5-1.4c-1.28,0-2.18,0.71-2.49,2.24L204.99,50h-2.54l1.74-8.74h2.41l-0.2,0.94c0.8-0.73,1.8-1.07,2.88-1.07
			C211.2,41.12,212.46,42.16,212.46,44.1z"/>
		<path class="st7" d="M223.63,41.25l-1.45,7.28c-0.67,3.36-2.57,4.75-5.59,4.75c-1.71,0-3.14-0.41-4.16-1.15l1.2-1.84
			c0.68,0.57,1.84,0.94,3.07,0.94c1.76,0,2.55-0.78,2.86-2.26l0.07-0.37c-0.68,0.63-1.59,0.97-2.67,0.97
			c-2.16,0-3.87-1.38-3.87-3.67c0-2.68,2.08-4.78,4.88-4.78c1.3,0,2.42,0.46,2.96,1.56l0.28-1.43H223.63z M220.18,44.94
			c0-1.06-0.71-1.72-1.97-1.72c-1.5,0-2.57,1.06-2.57,2.55c0,1.06,0.75,1.72,2,1.72C219.13,47.49,220.18,46.44,220.18,44.94z"/>
	</g>
</g>
</svg>
